<!DOCTYPE svg PUBLIC "-//W3C//DTD SVG 1.1//EN" "http://www.w3.org/Graphics/SVG/1.1/DTD/svg11.dtd">
<!-- Uploaded to: SVG Repo, www.svgrepo.com, Transformed by: SVG Repo Mixer Tools -->
<svg height="800px" width="800px" version="1.1" id="_x32_" xmlns="http://www.w3.org/2000/svg" xmlns:xlink="http://www.w3.org/1999/xlink" viewBox="0 0 512 512" xml:space="preserve" fill="#000000">
<g id="SVGRepo_bgCarrier" stroke-width="0"/>
<g id="SVGRepo_tracerCarrier" stroke-linecap="round" stroke-linejoin="round"/>
<g id="SVGRepo_iconCarrier"> <style type="text/css"> .st0{fill:#ffffff;} </style> <g> <path class="st0" d="M219.596,446.903c-5.673-3.839-12.572-6.085-19.906-6.085c-4.885,0-9.596,0.995-13.855,2.804 c-6.398,2.704-11.808,7.211-15.647,12.884c-3.84,5.657-6.094,12.564-6.085,19.898c0,4.884,0.995,9.596,2.804,13.863 c2.705,6.397,7.203,11.815,12.876,15.647c5.673,3.832,12.572,6.092,19.907,6.085c4.883,0.008,9.595-0.995,13.854-2.805 c6.396-2.713,11.807-7.202,15.655-12.876c3.832-5.673,6.085-12.58,6.076-19.914c0.008-4.884-0.994-9.588-2.804-13.846 C229.768,456.153,225.27,450.743,219.596,446.903z M212.912,481.996c-1.078,2.557-2.919,4.769-5.205,6.315 c-2.302,1.553-5.016,2.442-8.016,2.45c-2.015,0-3.873-0.403-5.584-1.126c-2.565-1.077-4.769-2.919-6.315-5.213 c-1.554-2.303-2.45-5.008-2.45-8.017c0-2.006,0.402-3.865,1.118-5.575c1.086-2.566,2.919-4.777,5.213-6.323 c2.303-1.554,5.016-2.442,8.018-2.45c2.014,0.008,3.872,0.403,5.582,1.126c2.558,1.085,4.77,2.911,6.315,5.213 c1.546,2.303,2.442,5,2.451,8.009C214.038,478.42,213.635,480.278,212.912,481.996z"/> <path class="st0" d="M414.78,446.903c-5.674-3.839-12.581-6.085-19.915-6.085c-4.884,0-9.587,0.995-13.846,2.804 c-6.413,2.704-11.824,7.211-15.656,12.884c-3.832,5.657-6.084,12.564-6.084,19.898c0,4.884,1.003,9.596,2.804,13.863 c2.705,6.397,7.211,11.815,12.884,15.647c5.657,3.832,12.564,6.092,19.898,6.085c4.884,0.008,9.596-0.995,13.863-2.805 c6.398-2.713,11.808-7.202,15.647-12.876c3.832-5.673,6.085-12.58,6.077-19.914c0.008-4.884-0.987-9.588-2.796-13.846 C424.942,456.153,420.453,450.743,414.78,446.903z M408.086,481.996c-1.076,2.557-2.91,4.769-5.204,6.315 c-2.303,1.553-5.008,2.442-8.017,2.45c-2.006,0-3.865-0.403-5.575-1.126c-2.566-1.077-4.769-2.919-6.331-5.213 c-1.546-2.303-2.434-5.008-2.434-8.017c0-2.006,0.395-3.865,1.118-5.575c1.085-2.566,2.911-4.777,5.214-6.323 c2.302-1.554,4.999-2.442,8.008-2.45c2.015,0.008,3.881,0.403,5.592,1.126c2.548,1.085,4.769,2.911,6.315,5.213 c1.546,2.303,2.442,5,2.45,8.009C409.213,478.42,408.81,480.278,408.086,481.996z"/> <path class="st0" d="M484.193,108.848c-4.9-5.986-12.235-9.472-19.98-9.472H356.705V15.17V0h-15.171h-71.715H254.64v15.17v84.206 H127.826l-11.453-39.336v-0.024c-5.262-17.604-19.701-30.932-37.667-34.78l-41.12-8.815c-6.956-1.488-13.814,2.944-15.31,9.908 c-1.497,6.956,2.944,13.822,9.908,15.31l41.12,8.815c8.749,1.874,15.787,8.378,18.352,16.954l75.153,258.15 c-1.694,0.789-3.338,1.653-4.908,2.59c-8.099,4.827-14.595,11.602-18.961,19.512c-4.16,7.524-6.381,16.042-6.586,24.832h-0.033 v1.34h0.033c0.164,6.857,1.628,13.452,4.16,19.462c4.07,9.604,10.83,17.736,19.356,23.5c8.502,5.756,18.862,9.135,29.88,9.127 h241.705c7.12,0,12.893-5.772,12.893-12.892c0-7.12-5.772-12.901-12.893-12.901H189.749c-3.848,0-7.45-0.765-10.754-2.162 c-4.942-2.088-9.193-5.608-12.17-10.031c-2.861-4.243-4.555-9.258-4.686-14.751c0.14-6.553,2.228-12.235,5.895-16.782 c1.9-2.352,4.251-4.408,7.096-6.109c2.812-1.677,6.117-3.001,9.998-3.84L428.083,306.9c15.869-2.59,28.49-14.718,31.698-30.48 l29.716-146.096l0.008-0.017c0.345-1.693,0.51-3.42,0.51-5.13C490.014,119.282,487.992,113.501,484.193,108.848z M305.669,256.415 l-78.886-98.669h43.036V15.17h71.715v142.576h43.037L305.669,256.415z"/> </g> </g>
</svg>