<?xml version="1.0" encoding="utf-8"?>

<!DOCTYPE svg PUBLIC "-//W3C//DTD SVG 1.1//EN" "http://www.w3.org/Graphics/SVG/1.1/DTD/svg11.dtd">
<!-- Uploaded to: SVG Repo, www.svgrepo.com, Generator: SVG Repo Mixer Tools -->
<svg height="800px" width="800px" version="1.1" id="_x32_" xmlns="http://www.w3.org/2000/svg" xmlns:xlink="http://www.w3.org/1999/xlink" 
	 viewBox="0 0 512 512"  xml:space="preserve">
<style type="text/css">
	.st0{fill:#000000;}
</style>
<g>
	<path class="st0" d="M223.455,453.803c-5.072-3.432-11.247-5.44-17.804-5.44c-4.366,0-8.57,0.89-12.378,2.507
		c-5.726,2.418-10.563,6.446-13.996,11.518c-3.426,5.058-5.439,11.232-5.439,17.789c0,4.367,0.896,8.579,2.507,12.394
		c2.418,5.719,6.446,10.563,11.518,13.989c5.065,3.426,11.232,5.447,17.789,5.44c4.366,0.007,8.586-0.89,12.394-2.507
		c5.719-2.426,10.556-6.439,13.981-11.512c3.433-5.072,5.447-11.246,5.44-17.804c0-4.366-0.882-8.571-2.499-12.378
		C232.541,462.072,228.527,457.236,223.455,453.803z M217.479,485.177c-0.97,2.286-2.61,4.263-4.66,5.645
		c-2.059,1.389-4.477,2.183-7.168,2.19c-1.794,0-3.455-0.36-4.984-1.007c-2.293-0.962-4.263-2.61-5.653-4.66
		c-1.389-2.059-2.183-4.477-2.183-7.168c0-1.794,0.353-3.455,1-4.984c0.97-2.294,2.61-4.271,4.661-5.653
		c2.058-1.389,4.469-2.183,7.159-2.19c1.801,0.007,3.47,0.36,4.991,1.007c2.286,0.97,4.271,2.602,5.653,4.66
		c1.382,2.058,2.176,4.47,2.183,7.16C218.478,481.979,218.118,483.64,217.479,485.177z"/>
	<path class="st0" d="M397.941,453.803c-5.064-3.432-11.239-5.44-17.796-5.44c-4.367,0-8.572,0.89-12.386,2.507
		c-5.727,2.418-10.564,6.446-13.989,11.518c-3.426,5.058-5.44,11.232-5.44,17.789c0,4.367,0.89,8.579,2.499,12.394
		c2.426,5.719,6.447,10.563,11.519,13.989c5.065,3.426,11.24,5.447,17.797,5.44c4.366,0.007,8.578-0.89,12.394-2.507
		c5.718-2.426,10.555-6.439,13.981-11.512c3.426-5.072,5.447-11.246,5.44-17.804c0-4.366-0.889-8.571-2.499-12.378
		C407.034,462.072,403.014,457.236,397.941,453.803z M391.966,485.177c-0.963,2.286-2.602,4.263-4.661,5.645
		c-2.058,1.389-4.469,2.183-7.159,2.19c-1.794,0-3.455-0.36-4.984-1.007c-2.294-0.962-4.278-2.61-5.66-4.66
		c-1.382-2.059-2.176-4.477-2.176-7.168c0-1.794,0.353-3.455,1-4.984c0.97-2.294,2.602-4.271,4.66-5.653
		c2.058-1.389,4.469-2.183,7.16-2.19c1.794,0.007,3.462,0.36,4.991,1.007c2.286,0.97,4.27,2.602,5.652,4.66
		c1.382,2.058,2.176,4.47,2.184,7.16C392.965,481.979,392.612,483.64,391.966,485.177z"/>
	<path class="st0" d="M460.004,151.581c-4.381-5.351-10.938-8.468-17.862-8.468H346.03v-19.626h24.912h28.213l-17.627-22.031
		l-70.524-88.21L300.403,0l-10.592,13.246l-70.531,88.21l-17.62,22.031h28.212h24.912v19.626H141.406l-10.233-35.166l-0.008-0.022
		c-4.704-15.738-17.604-27.654-33.674-31.094l-36.754-7.88c-6.227-1.331-12.357,2.631-13.688,8.857
		c-1.338,6.219,2.632,12.357,8.85,13.688l36.769,7.88c7.821,1.676,14.114,7.49,16.407,15.157l67.179,230.786
		c-1.507,0.706-2.978,1.478-4.389,2.316c-7.233,4.315-13.048,10.372-16.951,17.444c-3.719,6.726-5.704,14.342-5.881,22.199h-0.036
		v1.198h0.036c0.147,6.13,1.448,12.026,3.72,17.399c3.639,8.586,9.674,15.856,17.296,21.008c7.608,5.146,16.87,8.167,26.72,8.16
		h216.085c6.366,0,11.526-5.16,11.526-11.526s-5.16-11.534-11.526-11.534H196.771c-3.447,0-6.667-0.684-9.614-1.933
		c-4.425-1.867-8.218-5.013-10.887-8.968c-2.558-3.793-4.065-8.277-4.19-13.188c0.132-5.858,1.992-10.938,5.27-15.002
		c1.705-2.102,3.808-3.94,6.351-5.462c2.499-1.5,5.47-2.683,8.931-3.433l217.202-35.357c14.194-2.315,25.471-13.158,28.344-27.249
		l26.559-130.61l0.007-0.015c0.309-1.514,0.464-3.058,0.464-4.586C465.209,160.91,463.401,155.742,460.004,151.581z
		 M332.468,237.387h-64.122V109.924h-38.474l70.531-88.202l70.539,88.202h-38.474V237.387z"/>
</g>
</svg>